<mxfile host="app.diagrams.net" agent="Mozilla/5.0 (Windows NT 10.0; Win64; x64) AppleWebKit/537.36 (KHTML, like Gecko) Chrome/131.0.0.0 Safari/537.36" version="26.0.7">
  <diagram name="第 1 页" id="8k2AreSDYqxC22VC2qsZ">
    <mxGraphModel dx="1650" dy="1718" grid="1" gridSize="10" guides="1" tooltips="1" connect="1" arrows="1" fold="1" page="1" pageScale="1" pageWidth="827" pageHeight="1169" math="1" shadow="0">
      <root>
        <mxCell id="0" />
        <mxCell id="1" parent="0" />
        <mxCell id="jMqxLfQgD4BrnNBuKlTP-75" value="" style="rounded=1;fillColor=none;strokeColor=#737373;html=1;fontSize=15;" parent="1" vertex="1">
          <mxGeometry x="1479.25" y="-954.48" width="53" height="44.56" as="geometry" />
        </mxCell>
        <mxCell id="jMqxLfQgD4BrnNBuKlTP-76" value="" style="rounded=1;dashed=1;fillColor=none;html=1;" parent="1" vertex="1">
          <mxGeometry x="1149.26" y="-959.1" width="213.95" height="53.63" as="geometry" />
        </mxCell>
        <mxCell id="jMqxLfQgD4BrnNBuKlTP-83" value="" style="rounded=1;dashed=1;html=1;fontSize=15;" parent="1" vertex="1">
          <mxGeometry x="609.37" y="-1143" width="448.01" height="83" as="geometry" />
        </mxCell>
        <mxCell id="jMqxLfQgD4BrnNBuKlTP-85" value="" style="rounded=1;dashed=1;html=1;fontSize=15;" parent="1" vertex="1">
          <mxGeometry x="611.37" y="-1039" width="446.01" height="30" as="geometry" />
        </mxCell>
        <mxCell id="jMqxLfQgD4BrnNBuKlTP-86" value="$$f$$" style="ellipse;aspect=fixed;shadow=0;rotation=0;html=1;" parent="1" vertex="1">
          <mxGeometry x="1246.445" y="-1000.9550000000002" width="18.95734597156398" height="18.95734597156398" as="geometry" />
        </mxCell>
        <mxCell id="jMqxLfQgD4BrnNBuKlTP-87" value="" style="endArrow=blockThin;rounded=0;exitX=0.5;exitY=0;exitDx=0;exitDy=0;entryX=0;entryY=0.5;entryDx=0;entryDy=0;endFill=1;html=1;" parent="1" source="jMqxLfQgD4BrnNBuKlTP-86" target="jMqxLfQgD4BrnNBuKlTP-448" edge="1">
          <mxGeometry width="50" height="50" relative="1" as="geometry">
            <mxPoint x="1189.87" y="-1064" as="sourcePoint" />
            <mxPoint x="1242.845" y="-1050.4950000000001" as="targetPoint" />
          </mxGeometry>
        </mxCell>
        <mxCell id="jMqxLfQgD4BrnNBuKlTP-88" value="" style="ellipse;aspect=fixed;shadow=0;rotation=-90;html=1;fontSize=15;" parent="1" vertex="1">
          <mxGeometry x="676.8650000000001" y="-1032.9950000000001" width="18.95734597156398" height="18.95734597156398" as="geometry" />
        </mxCell>
        <mxCell id="jMqxLfQgD4BrnNBuKlTP-89" value="" style="ellipse;aspect=fixed;shadow=0;rotation=-90;fillColor=#e1d5e7;strokeColor=#9673a6;html=1;fontSize=15;" parent="1" vertex="1">
          <mxGeometry x="792.8750000000001" y="-1034.2450000000001" width="18.95734597156398" height="18.95734597156398" as="geometry" />
        </mxCell>
        <mxCell id="jMqxLfQgD4BrnNBuKlTP-90" value="" style="edgeStyle=orthogonalEdgeStyle;rounded=0;orthogonalLoop=1;jettySize=auto;entryX=0.25;entryY=0;entryDx=0;entryDy=0;exitX=0.25;exitY=1;exitDx=0;exitDy=0;endArrow=blockThin;endFill=1;html=1;fontSize=15;" parent="1" source="jMqxLfQgD4BrnNBuKlTP-101" target="jMqxLfQgD4BrnNBuKlTP-106" edge="1">
          <mxGeometry relative="1" as="geometry">
            <mxPoint x="687.2923459715638" y="-859.5163270142182" as="sourcePoint" />
            <mxPoint x="728.3649999999999" y="-859.5163270142182" as="targetPoint" />
          </mxGeometry>
        </mxCell>
        <mxCell id="jMqxLfQgD4BrnNBuKlTP-91" value="" style="endArrow=blockThin;rounded=0;exitX=0.25;exitY=1;exitDx=0;exitDy=0;entryX=0.25;entryY=0;entryDx=0;entryDy=0;endFill=1;html=1;fontSize=15;" parent="1" source="jMqxLfQgD4BrnNBuKlTP-96" target="jMqxLfQgD4BrnNBuKlTP-101" edge="1">
          <mxGeometry width="50" height="50" relative="1" as="geometry">
            <mxPoint x="693.8550000000001" y="-1156.9963270142182" as="sourcePoint" />
            <mxPoint x="666.36" y="-1087" as="targetPoint" />
          </mxGeometry>
        </mxCell>
        <mxCell id="jMqxLfQgD4BrnNBuKlTP-92" value="" style="endArrow=blockThin;rounded=0;exitX=0.75;exitY=0;exitDx=0;exitDy=0;entryX=0.75;entryY=1;entryDx=0;entryDy=0;endFill=1;html=1;fontSize=15;" parent="1" source="jMqxLfQgD4BrnNBuKlTP-106" target="jMqxLfQgD4BrnNBuKlTP-101" edge="1">
          <mxGeometry width="50" height="50" relative="1" as="geometry">
            <mxPoint x="728.3649999999999" y="-883.5163270142182" as="sourcePoint" />
            <mxPoint x="687.2923459715638" y="-883.5163270142182" as="targetPoint" />
          </mxGeometry>
        </mxCell>
        <mxCell id="jMqxLfQgD4BrnNBuKlTP-93" value="" style="endArrow=blockThin;rounded=0;exitX=0.75;exitY=0;exitDx=0;exitDy=0;entryX=0.75;entryY=1;entryDx=0;entryDy=0;endFill=1;html=1;fontSize=15;" parent="1" source="jMqxLfQgD4BrnNBuKlTP-110" target="jMqxLfQgD4BrnNBuKlTP-106" edge="1">
          <mxGeometry width="50" height="50" relative="1" as="geometry">
            <mxPoint x="792.3550000000001" y="-883.5163270142182" as="sourcePoint" />
            <mxPoint x="747.3223459715638" y="-883.5163270142182" as="targetPoint" />
          </mxGeometry>
        </mxCell>
        <mxCell id="jMqxLfQgD4BrnNBuKlTP-94" value="" style="endArrow=blockThin;rounded=0;exitX=0.75;exitY=0;exitDx=0;exitDy=0;entryX=0.75;entryY=1;entryDx=0;entryDy=0;endFill=1;html=1;fontSize=15;" parent="1" source="jMqxLfQgD4BrnNBuKlTP-101" target="jMqxLfQgD4BrnNBuKlTP-96" edge="1">
          <mxGeometry width="50" height="50" relative="1" as="geometry">
            <mxPoint x="852.3450000000001" y="-883.5163270142182" as="sourcePoint" />
            <mxPoint x="811.3123459715638" y="-883.5163270142182" as="targetPoint" />
          </mxGeometry>
        </mxCell>
        <mxCell id="jMqxLfQgD4BrnNBuKlTP-95" value="" style="group;html=1;fontSize=15;" parent="1" vertex="1" connectable="0">
          <mxGeometry x="617.3650000000001" y="-1120.7450000000001" width="39.47" height="49.710000000000036" as="geometry" />
        </mxCell>
        <mxCell id="jMqxLfQgD4BrnNBuKlTP-96" value="" style="rounded=0;rotation=-90;html=1;fontSize=15;" parent="jMqxLfQgD4BrnNBuKlTP-95" vertex="1">
          <mxGeometry x="-11.46" y="12.25" width="48" height="26" as="geometry" />
        </mxCell>
        <mxCell id="jMqxLfQgD4BrnNBuKlTP-97" value="" style="ellipse;aspect=fixed;shadow=0;rotation=-90;html=1;fontSize=15;" parent="jMqxLfQgD4BrnNBuKlTP-95" vertex="1">
          <mxGeometry x="3.519999999999982" y="26.499999999999943" width="18.95734597156398" height="18.95734597156398" as="geometry" />
        </mxCell>
        <mxCell id="jMqxLfQgD4BrnNBuKlTP-98" value="" style="ellipse;aspect=fixed;shadow=0;rotation=-90;html=1;fontSize=15;" parent="jMqxLfQgD4BrnNBuKlTP-95" vertex="1">
          <mxGeometry x="3.5200000000000955" y="3.9999999999998863" width="18.95734597156398" height="18.95734597156398" as="geometry" />
        </mxCell>
        <mxCell id="jMqxLfQgD4BrnNBuKlTP-99" value="" style="ellipse;aspect=fixed;shadow=0;rotation=-90;html=1;fontSize=15;" parent="1" vertex="1">
          <mxGeometry x="621.3750000000001" y="-1034.2450000000001" width="18.95734597156398" height="18.95734597156398" as="geometry" />
        </mxCell>
        <mxCell id="jMqxLfQgD4BrnNBuKlTP-100" value="" style="group;html=1;fontSize=15;" parent="1" vertex="1" connectable="0">
          <mxGeometry x="674.8950000000001" y="-1120.7450000000001" width="39.47" height="49.710000000000036" as="geometry" />
        </mxCell>
        <mxCell id="jMqxLfQgD4BrnNBuKlTP-101" value="" style="rounded=0;rotation=-90;html=1;fontSize=15;" parent="jMqxLfQgD4BrnNBuKlTP-100" vertex="1">
          <mxGeometry x="-11.46" y="12.25" width="48" height="26" as="geometry" />
        </mxCell>
        <mxCell id="jMqxLfQgD4BrnNBuKlTP-102" value="" style="ellipse;aspect=fixed;shadow=0;rotation=-90;html=1;fontSize=15;" parent="jMqxLfQgD4BrnNBuKlTP-100" vertex="1">
          <mxGeometry x="3.519999999999982" y="26.499999999999943" width="18.95734597156398" height="18.95734597156398" as="geometry" />
        </mxCell>
        <mxCell id="jMqxLfQgD4BrnNBuKlTP-103" value="" style="ellipse;aspect=fixed;shadow=0;rotation=-90;html=1;fontSize=15;" parent="jMqxLfQgD4BrnNBuKlTP-100" vertex="1">
          <mxGeometry x="3.5200000000000955" y="3.9999999999998863" width="18.95734597156398" height="18.95734597156398" as="geometry" />
        </mxCell>
        <mxCell id="jMqxLfQgD4BrnNBuKlTP-104" value="" style="edgeStyle=orthogonalEdgeStyle;rounded=0;orthogonalLoop=1;jettySize=auto;entryX=0.25;entryY=0;entryDx=0;entryDy=0;exitX=0.25;exitY=1;exitDx=0;exitDy=0;endArrow=blockThin;endFill=1;html=1;fontSize=15;" parent="jMqxLfQgD4BrnNBuKlTP-100" edge="1">
          <mxGeometry relative="1" as="geometry">
            <mxPoint x="82.48500000000001" y="37.254999999999995" as="sourcePoint" />
            <mxPoint x="113.48500000000001" y="37.254999999999995" as="targetPoint" />
          </mxGeometry>
        </mxCell>
        <mxCell id="jMqxLfQgD4BrnNBuKlTP-105" value="" style="group;html=1;fontSize=15;" parent="1" vertex="1" connectable="0">
          <mxGeometry x="731.8950000000001" y="-1120.7450000000001" width="39.47" height="49.710000000000036" as="geometry" />
        </mxCell>
        <mxCell id="jMqxLfQgD4BrnNBuKlTP-106" value="" style="rounded=0;rotation=-90;html=1;fontSize=15;" parent="jMqxLfQgD4BrnNBuKlTP-105" vertex="1">
          <mxGeometry x="-11.46" y="12.25" width="48" height="26" as="geometry" />
        </mxCell>
        <mxCell id="jMqxLfQgD4BrnNBuKlTP-107" value="" style="ellipse;aspect=fixed;shadow=0;rotation=-90;html=1;fontSize=15;" parent="jMqxLfQgD4BrnNBuKlTP-105" vertex="1">
          <mxGeometry x="3.519999999999982" y="26.499999999999943" width="18.95734597156398" height="18.95734597156398" as="geometry" />
        </mxCell>
        <mxCell id="jMqxLfQgD4BrnNBuKlTP-108" value="" style="ellipse;aspect=fixed;shadow=0;rotation=-90;html=1;fontSize=15;" parent="jMqxLfQgD4BrnNBuKlTP-105" vertex="1">
          <mxGeometry x="3.5200000000000955" y="3.9999999999998863" width="18.95734597156398" height="18.95734597156398" as="geometry" />
        </mxCell>
        <mxCell id="jMqxLfQgD4BrnNBuKlTP-109" value="" style="group;html=1;fontSize=15;" parent="1" vertex="1" connectable="0">
          <mxGeometry x="789.48" y="-1120.7450000000001" width="40" height="54.86" as="geometry" />
        </mxCell>
        <mxCell id="jMqxLfQgD4BrnNBuKlTP-110" value="" style="rounded=0;rotation=-90;html=1;fontSize=15;" parent="jMqxLfQgD4BrnNBuKlTP-109" vertex="1">
          <mxGeometry x="-11.46" y="12.25" width="48" height="26" as="geometry" />
        </mxCell>
        <mxCell id="jMqxLfQgD4BrnNBuKlTP-111" value="" style="ellipse;aspect=fixed;shadow=0;rotation=-90;fillColor=#e1d5e7;strokeColor=#9673a6;html=1;fontSize=15;" parent="jMqxLfQgD4BrnNBuKlTP-109" vertex="1">
          <mxGeometry x="3.519999999999982" y="26.499999999999943" width="18.95734597156398" height="18.95734597156398" as="geometry" />
        </mxCell>
        <mxCell id="jMqxLfQgD4BrnNBuKlTP-112" value="" style="ellipse;aspect=fixed;shadow=0;rotation=-90;fillColor=#e1d5e7;strokeColor=#9673a6;html=1;fontSize=15;" parent="jMqxLfQgD4BrnNBuKlTP-109" vertex="1">
          <mxGeometry x="3.5200000000000955" y="3.9999999999998863" width="18.95734597156398" height="18.95734597156398" as="geometry" />
        </mxCell>
        <mxCell id="jMqxLfQgD4BrnNBuKlTP-113" value="" style="group;html=1;fontSize=15;" parent="1" vertex="1" connectable="0">
          <mxGeometry x="963.875" y="-1120.7450000000001" width="39.47" height="57.20734597156387" as="geometry" />
        </mxCell>
        <mxCell id="jMqxLfQgD4BrnNBuKlTP-114" value="" style="rounded=0;rotation=-90;html=1;fontSize=15;" parent="jMqxLfQgD4BrnNBuKlTP-113" vertex="1">
          <mxGeometry x="-12" y="12.25" width="48" height="26" as="geometry" />
        </mxCell>
        <mxCell id="jMqxLfQgD4BrnNBuKlTP-115" value="" style="ellipse;aspect=fixed;shadow=0;rotation=-90;html=1;fontSize=15;" parent="jMqxLfQgD4BrnNBuKlTP-113" vertex="1">
          <mxGeometry x="2.519999999999982" y="26.499999999999943" width="18.95734597156398" height="18.95734597156398" as="geometry" />
        </mxCell>
        <mxCell id="jMqxLfQgD4BrnNBuKlTP-116" value="" style="ellipse;aspect=fixed;shadow=0;rotation=-90;html=1;fontSize=15;" parent="jMqxLfQgD4BrnNBuKlTP-113" vertex="1">
          <mxGeometry x="2.5200000000000955" y="3.9999999999998863" width="18.95734597156398" height="18.95734597156398" as="geometry" />
        </mxCell>
        <mxCell id="jMqxLfQgD4BrnNBuKlTP-118" value="Context Encoder" style="text;align=center;verticalAlign=middle;resizable=0;points=[];autosize=1;strokeColor=none;fillColor=none;fontStyle=1;fontSize=15;html=1;" parent="1" vertex="1">
          <mxGeometry x="445.01" y="-1116.5" width="140" height="30" as="geometry" />
        </mxCell>
        <mxCell id="jMqxLfQgD4BrnNBuKlTP-119" value="$$h_1$$" style="text;align=center;verticalAlign=middle;resizable=0;points=[];autosize=1;strokeColor=none;fillColor=none;html=1;fontSize=15;" parent="1" vertex="1">
          <mxGeometry x="592.4699999999999" y="-1143.89" width="80" height="30" as="geometry" />
        </mxCell>
        <mxCell id="jMqxLfQgD4BrnNBuKlTP-120" value="$$h_2$$" style="text;align=center;verticalAlign=middle;resizable=0;points=[];autosize=1;strokeColor=none;fillColor=none;html=1;fontSize=15;" parent="1" vertex="1">
          <mxGeometry x="648.99" y="-1143.89" width="80" height="30" as="geometry" />
        </mxCell>
        <mxCell id="jMqxLfQgD4BrnNBuKlTP-121" value="$$h_3$$" style="text;align=center;verticalAlign=middle;resizable=0;points=[];autosize=1;strokeColor=none;fillColor=none;html=1;fontSize=15;" parent="1" vertex="1">
          <mxGeometry x="706.37" y="-1143.89" width="80" height="30" as="geometry" />
        </mxCell>
        <mxCell id="jMqxLfQgD4BrnNBuKlTP-122" value="" style="rounded=1;fillColor=none;strokeColor=#737373;html=1;fontSize=15;" parent="1" vertex="1">
          <mxGeometry x="773.5600000000001" y="-1137" width="110.41" height="70" as="geometry" />
        </mxCell>
        <mxCell id="jMqxLfQgD4BrnNBuKlTP-123" value="$$h_7$$" style="text;align=center;verticalAlign=middle;resizable=0;points=[];autosize=1;strokeColor=none;fillColor=none;html=1;fontSize=15;" parent="1" vertex="1">
          <mxGeometry x="934.83" y="-1143.89" width="80" height="30" as="geometry" />
        </mxCell>
        <mxCell id="jMqxLfQgD4BrnNBuKlTP-133" value="$$f$$" style="ellipse;aspect=fixed;shadow=0;rotation=0;html=1;" parent="1" vertex="1">
          <mxGeometry x="1496.375" y="-1001.9550000000002" width="18.95734597156398" height="18.95734597156398" as="geometry" />
        </mxCell>
        <mxCell id="jMqxLfQgD4BrnNBuKlTP-134" value="" style="endArrow=blockThin;rounded=0;exitX=0.5;exitY=0;exitDx=0;exitDy=0;endFill=1;entryX=0;entryY=0.5;entryDx=0;entryDy=0;html=1;" parent="1" target="jMqxLfQgD4BrnNBuKlTP-457" edge="1">
          <mxGeometry width="50" height="50" relative="1" as="geometry">
            <mxPoint x="1505.853672985782" y="-1001.9550000000002" as="sourcePoint" />
            <mxPoint x="1474.24" y="-1017" as="targetPoint" />
          </mxGeometry>
        </mxCell>
        <mxCell id="jMqxLfQgD4BrnNBuKlTP-135" value="&lt;font style=&quot;font-size: 15px;&quot;&gt;$$h_{sem}$$&lt;/font&gt;" style="text;align=center;verticalAlign=middle;resizable=0;points=[];autosize=1;strokeColor=none;fillColor=none;html=1;fontSize=15;" parent="1" vertex="1">
          <mxGeometry x="1454.23" y="-1098.75" width="110" height="30" as="geometry" />
        </mxCell>
        <mxCell id="jMqxLfQgD4BrnNBuKlTP-138" value="" style="group;rotation=-90;html=1;" parent="1" vertex="1" connectable="0">
          <mxGeometry x="1337.7150000000001" y="-1091.685" width="40" height="54.86" as="geometry" />
        </mxCell>
        <mxCell id="jMqxLfQgD4BrnNBuKlTP-139" value="" style="rounded=0;rotation=-180;fillColor=#dae8fc;strokeColor=#6c8ebf;html=1;" parent="jMqxLfQgD4BrnNBuKlTP-138" vertex="1">
          <mxGeometry x="-5" y="29" width="48" height="26" as="geometry" />
        </mxCell>
        <mxCell id="jMqxLfQgD4BrnNBuKlTP-140" value="" style="group;rotation=-90;html=1;" parent="1" vertex="1" connectable="0">
          <mxGeometry x="1392.2450000000001" y="-1091.685" width="40" height="54.86" as="geometry" />
        </mxCell>
        <mxCell id="jMqxLfQgD4BrnNBuKlTP-141" value="" style="rounded=0;rotation=-180;fillColor=#f8cecc;strokeColor=#b85450;html=1;" parent="jMqxLfQgD4BrnNBuKlTP-140" vertex="1">
          <mxGeometry x="-11" y="29" width="48" height="26" as="geometry" />
        </mxCell>
        <mxCell id="jMqxLfQgD4BrnNBuKlTP-142" value="" style="endArrow=blockThin;rounded=0;exitX=0.5;exitY=0;exitDx=0;exitDy=0;entryX=0.5;entryY=1;entryDx=0;entryDy=0;endFill=1;html=1;" parent="1" source="jMqxLfQgD4BrnNBuKlTP-143" edge="1">
          <mxGeometry width="50" height="50" relative="1" as="geometry">
            <mxPoint x="1363.75" y="-1123" as="sourcePoint" />
            <mxPoint x="1381.0449999999998" y="-1120.48" as="targetPoint" />
          </mxGeometry>
        </mxCell>
        <mxCell id="jMqxLfQgD4BrnNBuKlTP-143" value="$$\sigma$$" style="ellipse;aspect=fixed;shadow=0;rotation=0;html=1;" parent="1" vertex="1">
          <mxGeometry x="1371.2350000000001" y="-1103.645" width="18.95734597156398" height="18.95734597156398" as="geometry" />
        </mxCell>
        <mxCell id="jMqxLfQgD4BrnNBuKlTP-144" value="" style="endArrow=blockThin;rounded=0;exitX=1.011;exitY=0.99;exitDx=0;exitDy=0;entryX=0.5;entryY=1;entryDx=0;entryDy=0;endFill=1;html=1;exitPerimeter=0;" parent="1" source="jMqxLfQgD4BrnNBuKlTP-141" edge="1">
          <mxGeometry width="50" height="50" relative="1" as="geometry">
            <mxPoint x="1380.715" y="-1065.685" as="sourcePoint" />
            <mxPoint x="1380.713672985782" y="-1084.6876540284359" as="targetPoint" />
          </mxGeometry>
        </mxCell>
        <mxCell id="jMqxLfQgD4BrnNBuKlTP-145" value="Softmax" style="text;align=center;verticalAlign=middle;resizable=0;points=[];autosize=1;strokeColor=none;fillColor=none;fontStyle=1;fontSize=15;html=1;" parent="1" vertex="1">
          <mxGeometry x="1387.25" y="-1109.17" width="80" height="30" as="geometry" />
        </mxCell>
        <mxCell id="jMqxLfQgD4BrnNBuKlTP-146" value="Classifier" style="rounded=1;fillColor=#e1d5e7;strokeColor=#9673a6;fontStyle=1;fontSize=15;html=1;" parent="1" vertex="1">
          <mxGeometry x="1329.52" y="-1160" width="103.47" height="39.52" as="geometry" />
        </mxCell>
        <mxCell id="jMqxLfQgD4BrnNBuKlTP-147" value="$$h_4$$" style="text;align=center;verticalAlign=middle;resizable=0;points=[];autosize=1;strokeColor=none;fillColor=none;html=1;fontSize=15;" parent="1" vertex="1">
          <mxGeometry x="762.35" y="-1143.89" width="80" height="30" as="geometry" />
        </mxCell>
        <mxCell id="jMqxLfQgD4BrnNBuKlTP-148" value="&lt;font style=&quot;font-size: 15px;&quot;&gt;$$h_{syn}$$&lt;/font&gt;&lt;p class=&quot;MsoBodyText&quot; style=&quot;font-size: 15px;&quot;&gt;&lt;/p&gt;" style="text;html=1;align=center;verticalAlign=middle;resizable=0;points=[];autosize=1;strokeColor=none;fillColor=none;fontSize=15;" parent="1" vertex="1">
          <mxGeometry x="1202.21" y="-1108.75" width="110" height="50" as="geometry" />
        </mxCell>
        <mxCell id="jMqxLfQgD4BrnNBuKlTP-149" value="" style="endArrow=blockThin;rounded=0;endFill=1;html=1;fontSize=15;" parent="1" edge="1">
          <mxGeometry width="50" height="50" relative="1" as="geometry">
            <mxPoint x="630.79" y="-1040" as="sourcePoint" />
            <mxPoint x="630.79" y="-1060" as="targetPoint" />
          </mxGeometry>
        </mxCell>
        <mxCell id="jMqxLfQgD4BrnNBuKlTP-150" value="" style="endArrow=blockThin;rounded=0;endFill=1;html=1;fontSize=15;" parent="1" edge="1">
          <mxGeometry width="50" height="50" relative="1" as="geometry">
            <mxPoint x="686.79" y="-1039" as="sourcePoint" />
            <mxPoint x="686.79" y="-1059" as="targetPoint" />
          </mxGeometry>
        </mxCell>
        <mxCell id="jMqxLfQgD4BrnNBuKlTP-151" value="" style="endArrow=blockThin;rounded=0;endFill=1;html=1;fontSize=15;" parent="1" edge="1">
          <mxGeometry width="50" height="50" relative="1" as="geometry">
            <mxPoint x="744.79" y="-1039" as="sourcePoint" />
            <mxPoint x="744.79" y="-1059" as="targetPoint" />
          </mxGeometry>
        </mxCell>
        <mxCell id="jMqxLfQgD4BrnNBuKlTP-152" value="" style="endArrow=blockThin;rounded=0;endFill=1;html=1;fontSize=15;" parent="1" edge="1">
          <mxGeometry width="50" height="50" relative="1" as="geometry">
            <mxPoint x="802.29" y="-1039" as="sourcePoint" />
            <mxPoint x="802.29" y="-1059" as="targetPoint" />
          </mxGeometry>
        </mxCell>
        <mxCell id="jMqxLfQgD4BrnNBuKlTP-153" value="" style="endArrow=blockThin;rounded=0;endFill=1;html=1;fontSize=15;" parent="1" edge="1">
          <mxGeometry width="50" height="50" relative="1" as="geometry">
            <mxPoint x="859.9" y="-1039" as="sourcePoint" />
            <mxPoint x="859.9" y="-1059" as="targetPoint" />
          </mxGeometry>
        </mxCell>
        <mxCell id="jMqxLfQgD4BrnNBuKlTP-154" value="" style="endArrow=blockThin;rounded=0;endFill=1;html=1;fontSize=15;" parent="1" edge="1">
          <mxGeometry width="50" height="50" relative="1" as="geometry">
            <mxPoint x="917.8899999999999" y="-1040" as="sourcePoint" />
            <mxPoint x="917.8899999999999" y="-1060" as="targetPoint" />
          </mxGeometry>
        </mxCell>
        <mxCell id="jMqxLfQgD4BrnNBuKlTP-155" value="" style="endArrow=blockThin;rounded=0;endFill=1;html=1;fontSize=15;" parent="1" edge="1">
          <mxGeometry width="50" height="50" relative="1" as="geometry">
            <mxPoint x="976.7899999999997" y="-1039" as="sourcePoint" />
            <mxPoint x="976.7899999999997" y="-1059" as="targetPoint" />
          </mxGeometry>
        </mxCell>
        <mxCell id="jMqxLfQgD4BrnNBuKlTP-156" value="AveragePooling" style="text;align=center;verticalAlign=middle;resizable=0;points=[];autosize=1;strokeColor=none;fillColor=none;fontSize=15;fontStyle=1;html=1;" parent="1" vertex="1">
          <mxGeometry x="1515.47" y="-1009" width="130" height="30" as="geometry" />
        </mxCell>
        <mxCell id="jMqxLfQgD4BrnNBuKlTP-157" value="AveragePooling" style="text;align=center;verticalAlign=middle;resizable=0;points=[];autosize=1;strokeColor=none;fillColor=none;fontSize=15;fontStyle=1;html=1;" parent="1" vertex="1">
          <mxGeometry x="1115.8200000000002" y="-1009" width="130" height="30" as="geometry" />
        </mxCell>
        <mxCell id="jMqxLfQgD4BrnNBuKlTP-448" value="" style="rounded=0;rotation=-90;fillColor=#dae8fc;strokeColor=#6c8ebf;html=1;" parent="1" vertex="1">
          <mxGeometry x="1231.9250000000002" y="-1061.7450000000001" width="48" height="26" as="geometry" />
        </mxCell>
        <mxCell id="jMqxLfQgD4BrnNBuKlTP-449" value="$$w_1$$" style="text;align=center;verticalAlign=middle;resizable=0;points=[];autosize=1;strokeColor=none;fillColor=none;html=1;fontSize=15;" parent="1" vertex="1">
          <mxGeometry x="591.8599999999999" y="-1009" width="80" height="30" as="geometry" />
        </mxCell>
        <mxCell id="jMqxLfQgD4BrnNBuKlTP-450" value="$$w_2$$" style="text;align=center;verticalAlign=middle;resizable=0;points=[];autosize=1;strokeColor=none;fillColor=none;html=1;fontSize=15;" parent="1" vertex="1">
          <mxGeometry x="646.3399999999999" y="-1009" width="80" height="30" as="geometry" />
        </mxCell>
        <mxCell id="jMqxLfQgD4BrnNBuKlTP-451" value="$$w_3$$" style="text;align=center;verticalAlign=middle;resizable=0;points=[];autosize=1;strokeColor=none;fillColor=none;html=1;fontSize=15;" parent="1" vertex="1">
          <mxGeometry x="706.3699999999999" y="-1009" width="80" height="30" as="geometry" />
        </mxCell>
        <mxCell id="jMqxLfQgD4BrnNBuKlTP-452" value="$$a_1$$" style="text;align=center;verticalAlign=middle;resizable=0;points=[];autosize=1;strokeColor=none;fillColor=none;html=1;fontSize=15;" parent="1" vertex="1">
          <mxGeometry x="762.3599999999999" y="-1009" width="80" height="30" as="geometry" />
        </mxCell>
        <mxCell id="jMqxLfQgD4BrnNBuKlTP-453" value="$$a_2$$" style="text;align=center;verticalAlign=middle;resizable=0;points=[];autosize=1;strokeColor=none;fillColor=none;html=1;fontSize=15;" parent="1" vertex="1">
          <mxGeometry x="821.8499999999999" y="-1009" width="80" height="30" as="geometry" />
        </mxCell>
        <mxCell id="jMqxLfQgD4BrnNBuKlTP-454" value="$$w_6$$" style="text;align=center;verticalAlign=middle;resizable=0;points=[];autosize=1;strokeColor=none;fillColor=none;html=1;fontSize=15;" parent="1" vertex="1">
          <mxGeometry x="880.3499999999999" y="-1009" width="80" height="30" as="geometry" />
        </mxCell>
        <mxCell id="jMqxLfQgD4BrnNBuKlTP-455" value="$$w_7$$" style="text;align=center;verticalAlign=middle;resizable=0;points=[];autosize=1;strokeColor=none;fillColor=none;html=1;fontSize=15;" parent="1" vertex="1">
          <mxGeometry x="938.1099999999998" y="-1009" width="80" height="30" as="geometry" />
        </mxCell>
        <mxCell id="jMqxLfQgD4BrnNBuKlTP-457" value="" style="rounded=0;rotation=-90;fillColor=#f8cecc;strokeColor=#b85450;html=1;" parent="1" vertex="1">
          <mxGeometry x="1481.845" y="-1062.7450000000001" width="48" height="26" as="geometry" />
        </mxCell>
        <mxCell id="jMqxLfQgD4BrnNBuKlTP-459" value="" style="rounded=0;rotation=-90;aspect=fixed;html=1;" parent="1" vertex="1">
          <mxGeometry x="1249.9666607550039" y="-942.3166505733252" width="37.62655181150241" height="20.381048897897138" as="geometry" />
        </mxCell>
        <mxCell id="jMqxLfQgD4BrnNBuKlTP-460" value="" style="ellipse;aspect=fixed;shadow=0;rotation=-90;fillColor=#dae8fc;strokeColor=#6c8ebf;html=1;" parent="1" vertex="1">
          <mxGeometry x="1261.3492804661767" y="-931.1454073627037" width="14.860407508492264" height="14.860407508492264" as="geometry" />
        </mxCell>
        <mxCell id="jMqxLfQgD4BrnNBuKlTP-461" value="" style="ellipse;aspect=fixed;shadow=0;rotation=-90;fillColor=#dae8fc;strokeColor=#6c8ebf;html=1;" parent="1" vertex="1">
          <mxGeometry x="1261.3492804661769" y="-948.7842124321063" width="14.860407508492264" height="14.860407508492264" as="geometry" />
        </mxCell>
        <mxCell id="jMqxLfQgD4BrnNBuKlTP-462" value="" style="rounded=0;rotation=-90;aspect=fixed;html=1;" parent="1" vertex="1">
          <mxGeometry x="1276.6066607550038" y="-942.3166505733252" width="37.62655181150241" height="20.381048897897138" as="geometry" />
        </mxCell>
        <mxCell id="jMqxLfQgD4BrnNBuKlTP-463" value="" style="ellipse;aspect=fixed;shadow=0;rotation=-90;html=1;" parent="1" vertex="1">
          <mxGeometry x="1288.3492804661767" y="-931.1454073627037" width="14.860407508492264" height="14.860407508492264" as="geometry" />
        </mxCell>
        <mxCell id="jMqxLfQgD4BrnNBuKlTP-464" value="" style="ellipse;aspect=fixed;shadow=0;rotation=-90;html=1;" parent="1" vertex="1">
          <mxGeometry x="1288.3492804661769" y="-948.7842124321063" width="14.860407508492264" height="14.860407508492264" as="geometry" />
        </mxCell>
        <mxCell id="jMqxLfQgD4BrnNBuKlTP-465" value="" style="endArrow=blockThin;rounded=0;entryX=0.5;entryY=1;entryDx=0;entryDy=0;endFill=1;html=1;exitX=0.5;exitY=0;exitDx=0;exitDy=0;" parent="1" source="jMqxLfQgD4BrnNBuKlTP-595" target="jMqxLfQgD4BrnNBuKlTP-86" edge="1">
          <mxGeometry width="50" height="50" relative="1" as="geometry">
            <mxPoint x="1265.26" y="-960" as="sourcePoint" />
            <mxPoint x="1090.24" y="-1046" as="targetPoint" />
          </mxGeometry>
        </mxCell>
        <mxCell id="jMqxLfQgD4BrnNBuKlTP-466" value="" style="endArrow=blockThin;rounded=0;exitX=0.5;exitY=0;exitDx=0;exitDy=0;entryX=0.5;entryY=1;entryDx=0;entryDy=0;endFill=1;html=1;" parent="1" source="jMqxLfQgD4BrnNBuKlTP-75" target="jMqxLfQgD4BrnNBuKlTP-133" edge="1">
          <mxGeometry width="50" height="50" relative="1" as="geometry">
            <mxPoint x="1493.21" y="-958.63" as="sourcePoint" />
            <mxPoint x="1492.853672985782" y="-982.997654028436" as="targetPoint" />
          </mxGeometry>
        </mxCell>
        <mxCell id="jMqxLfQgD4BrnNBuKlTP-494" value="Input Embedding" style="text;align=center;verticalAlign=middle;resizable=0;points=[];autosize=1;strokeColor=none;fillColor=none;fontStyle=1;fontSize=15;html=1;" parent="1" vertex="1">
          <mxGeometry x="440" y="-1038.52" width="150" height="30" as="geometry" />
        </mxCell>
        <mxCell id="jMqxLfQgD4BrnNBuKlTP-560" value="" style="group;html=1;fontSize=15;" parent="1" vertex="1" connectable="0">
          <mxGeometry x="847.325" y="-1120.7450000000001" width="39.47" height="49.710000000000036" as="geometry" />
        </mxCell>
        <mxCell id="jMqxLfQgD4BrnNBuKlTP-561" value="" style="rounded=0;rotation=-90;html=1;fontSize=15;" parent="jMqxLfQgD4BrnNBuKlTP-560" vertex="1">
          <mxGeometry x="-11.46" y="12.25" width="48" height="26" as="geometry" />
        </mxCell>
        <mxCell id="jMqxLfQgD4BrnNBuKlTP-562" value="" style="ellipse;aspect=fixed;shadow=0;rotation=-90;html=1;fontSize=15;fillColor=#e1d5e7;strokeColor=#9673a6;" parent="jMqxLfQgD4BrnNBuKlTP-560" vertex="1">
          <mxGeometry x="3.519999999999982" y="26.499999999999943" width="18.95734597156398" height="18.95734597156398" as="geometry" />
        </mxCell>
        <mxCell id="jMqxLfQgD4BrnNBuKlTP-563" value="" style="ellipse;aspect=fixed;shadow=0;rotation=-90;html=1;fontSize=15;fillColor=#e1d5e7;strokeColor=#9673a6;" parent="jMqxLfQgD4BrnNBuKlTP-560" vertex="1">
          <mxGeometry x="3.5200000000000955" y="3.9999999999998863" width="18.95734597156398" height="18.95734597156398" as="geometry" />
        </mxCell>
        <mxCell id="jMqxLfQgD4BrnNBuKlTP-564" value="" style="group;html=1;fontSize=15;" parent="1" vertex="1" connectable="0">
          <mxGeometry x="905.38" y="-1120.7450000000001" width="39.47" height="49.710000000000036" as="geometry" />
        </mxCell>
        <mxCell id="jMqxLfQgD4BrnNBuKlTP-565" value="" style="rounded=0;rotation=-90;html=1;fontSize=15;" parent="jMqxLfQgD4BrnNBuKlTP-564" vertex="1">
          <mxGeometry x="-11.46" y="12.25" width="48" height="26" as="geometry" />
        </mxCell>
        <mxCell id="jMqxLfQgD4BrnNBuKlTP-566" value="" style="ellipse;aspect=fixed;shadow=0;rotation=-90;html=1;fontSize=15;" parent="jMqxLfQgD4BrnNBuKlTP-564" vertex="1">
          <mxGeometry x="3.519999999999982" y="26.499999999999943" width="18.95734597156398" height="18.95734597156398" as="geometry" />
        </mxCell>
        <mxCell id="jMqxLfQgD4BrnNBuKlTP-567" value="" style="ellipse;aspect=fixed;shadow=0;rotation=-90;html=1;fontSize=15;" parent="jMqxLfQgD4BrnNBuKlTP-564" vertex="1">
          <mxGeometry x="3.5200000000000955" y="3.9999999999998863" width="18.95734597156398" height="18.95734597156398" as="geometry" />
        </mxCell>
        <mxCell id="jMqxLfQgD4BrnNBuKlTP-568" value="" style="edgeStyle=orthogonalEdgeStyle;rounded=0;orthogonalLoop=1;jettySize=auto;entryX=0.25;entryY=0;entryDx=0;entryDy=0;exitX=0.25;exitY=1;exitDx=0;exitDy=0;endArrow=blockThin;endFill=1;html=1;fontSize=15;" parent="1" edge="1">
          <mxGeometry relative="1" as="geometry">
            <mxPoint x="815.38" y="-1083" as="sourcePoint" />
            <mxPoint x="846.38" y="-1083" as="targetPoint" />
          </mxGeometry>
        </mxCell>
        <mxCell id="jMqxLfQgD4BrnNBuKlTP-569" value="" style="edgeStyle=orthogonalEdgeStyle;rounded=0;orthogonalLoop=1;jettySize=auto;entryX=0.25;entryY=0;entryDx=0;entryDy=0;exitX=0.25;exitY=1;exitDx=0;exitDy=0;endArrow=blockThin;endFill=1;html=1;fontSize=15;" parent="1" edge="1">
          <mxGeometry relative="1" as="geometry">
            <mxPoint x="873.33" y="-1083" as="sourcePoint" />
            <mxPoint x="904.33" y="-1083" as="targetPoint" />
          </mxGeometry>
        </mxCell>
        <mxCell id="jMqxLfQgD4BrnNBuKlTP-570" value="" style="edgeStyle=orthogonalEdgeStyle;rounded=0;orthogonalLoop=1;jettySize=auto;entryX=0.25;entryY=0;entryDx=0;entryDy=0;exitX=0.25;exitY=1;exitDx=0;exitDy=0;endArrow=blockThin;endFill=1;html=1;fontSize=15;" parent="1" edge="1">
          <mxGeometry relative="1" as="geometry">
            <mxPoint x="931.38" y="-1083" as="sourcePoint" />
            <mxPoint x="962.3799999999999" y="-1083" as="targetPoint" />
          </mxGeometry>
        </mxCell>
        <mxCell id="jMqxLfQgD4BrnNBuKlTP-571" value="$$h_5$$" style="text;align=center;verticalAlign=middle;resizable=0;points=[];autosize=1;strokeColor=none;fillColor=none;html=1;fontSize=15;" parent="1" vertex="1">
          <mxGeometry x="819.45" y="-1143.89" width="80" height="30" as="geometry" />
        </mxCell>
        <mxCell id="jMqxLfQgD4BrnNBuKlTP-572" value="$$h_6$$" style="text;align=center;verticalAlign=middle;resizable=0;points=[];autosize=1;strokeColor=none;fillColor=none;html=1;fontSize=15;" parent="1" vertex="1">
          <mxGeometry x="877.36" y="-1144" width="80" height="30" as="geometry" />
        </mxCell>
        <mxCell id="jMqxLfQgD4BrnNBuKlTP-573" value="" style="ellipse;aspect=fixed;shadow=0;rotation=-90;html=1;fontSize=15;" parent="1" vertex="1">
          <mxGeometry x="735.4150000000001" y="-1034.2450000000001" width="18.95734597156398" height="18.95734597156398" as="geometry" />
        </mxCell>
        <mxCell id="jMqxLfQgD4BrnNBuKlTP-574" value="" style="ellipse;aspect=fixed;shadow=0;rotation=-90;html=1;fontSize=15;fillColor=#e1d5e7;strokeColor=#9673a6;" parent="1" vertex="1">
          <mxGeometry x="849.9750000000001" y="-1033.4750000000001" width="18.95734597156398" height="18.95734597156398" as="geometry" />
        </mxCell>
        <mxCell id="jMqxLfQgD4BrnNBuKlTP-575" value="" style="ellipse;aspect=fixed;shadow=0;rotation=-90;html=1;fontSize=15;" parent="1" vertex="1">
          <mxGeometry x="909.3650000000001" y="-1033.4750000000001" width="18.95734597156398" height="18.95734597156398" as="geometry" />
        </mxCell>
        <mxCell id="jMqxLfQgD4BrnNBuKlTP-576" value="" style="ellipse;aspect=fixed;shadow=0;rotation=-90;html=1;fontSize=15;" parent="1" vertex="1">
          <mxGeometry x="967.395" y="-1033.2450000000001" width="18.95734597156398" height="18.95734597156398" as="geometry" />
        </mxCell>
        <mxCell id="jMqxLfQgD4BrnNBuKlTP-577" value="" style="rounded=0;rotation=-90;aspect=fixed;html=1;" parent="1" vertex="1">
          <mxGeometry x="1302.6066607550038" y="-942.3166505733252" width="37.62655181150241" height="20.381048897897138" as="geometry" />
        </mxCell>
        <mxCell id="jMqxLfQgD4BrnNBuKlTP-578" value="" style="ellipse;aspect=fixed;shadow=0;rotation=-90;html=1;" parent="1" vertex="1">
          <mxGeometry x="1314.3492804661767" y="-931.1454073627037" width="14.860407508492264" height="14.860407508492264" as="geometry" />
        </mxCell>
        <mxCell id="jMqxLfQgD4BrnNBuKlTP-579" value="" style="ellipse;aspect=fixed;shadow=0;rotation=-90;html=1;" parent="1" vertex="1">
          <mxGeometry x="1314.3492804661769" y="-948.7842124321063" width="14.860407508492264" height="14.860407508492264" as="geometry" />
        </mxCell>
        <mxCell id="jMqxLfQgD4BrnNBuKlTP-580" value="" style="rounded=0;rotation=-90;aspect=fixed;html=1;" parent="1" vertex="1">
          <mxGeometry x="1329.6066607550038" y="-942.3166505733252" width="37.62655181150241" height="20.381048897897138" as="geometry" />
        </mxCell>
        <mxCell id="jMqxLfQgD4BrnNBuKlTP-581" value="" style="ellipse;aspect=fixed;shadow=0;rotation=-90;html=1;" parent="1" vertex="1">
          <mxGeometry x="1341.3492804661767" y="-931.1454073627037" width="14.860407508492264" height="14.860407508492264" as="geometry" />
        </mxCell>
        <mxCell id="jMqxLfQgD4BrnNBuKlTP-582" value="" style="ellipse;aspect=fixed;shadow=0;rotation=-90;html=1;" parent="1" vertex="1">
          <mxGeometry x="1341.3492804661769" y="-948.7842124321063" width="14.860407508492264" height="14.860407508492264" as="geometry" />
        </mxCell>
        <mxCell id="jMqxLfQgD4BrnNBuKlTP-583" value="" style="rounded=0;rotation=-90;aspect=fixed;html=1;" parent="1" vertex="1">
          <mxGeometry x="1170.6066607550038" y="-942.3166505733252" width="37.62655181150241" height="20.381048897897138" as="geometry" />
        </mxCell>
        <mxCell id="jMqxLfQgD4BrnNBuKlTP-584" value="" style="ellipse;aspect=fixed;shadow=0;rotation=-90;html=1;" parent="1" vertex="1">
          <mxGeometry x="1182.3492804661767" y="-931.1454073627037" width="14.860407508492264" height="14.860407508492264" as="geometry" />
        </mxCell>
        <mxCell id="jMqxLfQgD4BrnNBuKlTP-585" value="" style="ellipse;aspect=fixed;shadow=0;rotation=-90;html=1;" parent="1" vertex="1">
          <mxGeometry x="1182.3492804661769" y="-948.7842124321063" width="14.860407508492264" height="14.860407508492264" as="geometry" />
        </mxCell>
        <mxCell id="jMqxLfQgD4BrnNBuKlTP-586" value="" style="rounded=0;rotation=-90;aspect=fixed;html=1;" parent="1" vertex="1">
          <mxGeometry x="1196.6066607550038" y="-942.3166505733252" width="37.62655181150241" height="20.381048897897138" as="geometry" />
        </mxCell>
        <mxCell id="jMqxLfQgD4BrnNBuKlTP-587" value="" style="ellipse;aspect=fixed;shadow=0;rotation=-90;html=1;" parent="1" vertex="1">
          <mxGeometry x="1208.3492804661767" y="-931.1454073627037" width="14.860407508492264" height="14.860407508492264" as="geometry" />
        </mxCell>
        <mxCell id="jMqxLfQgD4BrnNBuKlTP-588" value="" style="ellipse;aspect=fixed;shadow=0;rotation=-90;html=1;" parent="1" vertex="1">
          <mxGeometry x="1208.3492804661769" y="-948.7842124321063" width="14.860407508492264" height="14.860407508492264" as="geometry" />
        </mxCell>
        <mxCell id="jMqxLfQgD4BrnNBuKlTP-589" value="" style="rounded=0;rotation=-90;aspect=fixed;html=1;" parent="1" vertex="1">
          <mxGeometry x="1223.6066607550038" y="-942.3166505733252" width="37.62655181150241" height="20.381048897897138" as="geometry" />
        </mxCell>
        <mxCell id="jMqxLfQgD4BrnNBuKlTP-590" value="" style="ellipse;aspect=fixed;shadow=0;rotation=-90;fillColor=#dae8fc;strokeColor=#6c8ebf;html=1;" parent="1" vertex="1">
          <mxGeometry x="1235.3492804661767" y="-931.1454073627037" width="14.860407508492264" height="14.860407508492264" as="geometry" />
        </mxCell>
        <mxCell id="jMqxLfQgD4BrnNBuKlTP-591" value="" style="ellipse;aspect=fixed;shadow=0;rotation=-90;fillColor=#dae8fc;strokeColor=#6c8ebf;html=1;" parent="1" vertex="1">
          <mxGeometry x="1235.3492804661769" y="-948.7842124321063" width="14.860407508492264" height="14.860407508492264" as="geometry" />
        </mxCell>
        <mxCell id="jMqxLfQgD4BrnNBuKlTP-593" value="" style="endArrow=classic;html=1;rounded=0;exitX=0.5;exitY=1;exitDx=0;exitDy=0;entryX=1;entryY=0.5;entryDx=0;entryDy=0;" parent="1" source="jMqxLfQgD4BrnNBuKlTP-448" target="jMqxLfQgD4BrnNBuKlTP-139" edge="1">
          <mxGeometry width="50" height="50" relative="1" as="geometry">
            <mxPoint x="1225.26" y="-1089" as="sourcePoint" />
            <mxPoint x="1275.26" y="-1139" as="targetPoint" />
          </mxGeometry>
        </mxCell>
        <mxCell id="jMqxLfQgD4BrnNBuKlTP-594" value="" style="endArrow=classic;html=1;rounded=0;exitX=0.5;exitY=0;exitDx=0;exitDy=0;entryX=0;entryY=0.5;entryDx=0;entryDy=0;" parent="1" source="jMqxLfQgD4BrnNBuKlTP-457" target="jMqxLfQgD4BrnNBuKlTP-141" edge="1">
          <mxGeometry width="50" height="50" relative="1" as="geometry">
            <mxPoint x="1296.26" y="-1039" as="sourcePoint" />
            <mxPoint x="1348.26" y="-1043" as="targetPoint" />
          </mxGeometry>
        </mxCell>
        <mxCell id="jMqxLfQgD4BrnNBuKlTP-595" value="" style="rounded=1;fillColor=none;strokeColor=#737373;html=1;fontSize=15;" parent="1" vertex="1">
          <mxGeometry x="1229.25" y="-954.48" width="53" height="44.56" as="geometry" />
        </mxCell>
        <mxCell id="jMqxLfQgD4BrnNBuKlTP-596" value="" style="rounded=0;rotation=-90;html=1;fontSize=15;" parent="1" vertex="1">
          <mxGeometry x="1009.875" y="-1108.4950000000001" width="48" height="26" as="geometry" />
        </mxCell>
        <mxCell id="jMqxLfQgD4BrnNBuKlTP-597" value="" style="ellipse;aspect=fixed;shadow=0;rotation=-90;html=1;fontSize=15;" parent="1" vertex="1">
          <mxGeometry x="1024.395" y="-1094.2450000000001" width="18.95734597156398" height="18.95734597156398" as="geometry" />
        </mxCell>
        <mxCell id="jMqxLfQgD4BrnNBuKlTP-598" value="" style="ellipse;aspect=fixed;shadow=0;rotation=-90;html=1;fontSize=15;" parent="1" vertex="1">
          <mxGeometry x="1024.3950000000002" y="-1116.7450000000001" width="18.95734597156398" height="18.95734597156398" as="geometry" />
        </mxCell>
        <mxCell id="jMqxLfQgD4BrnNBuKlTP-599" value="$$h_8$$" style="text;align=center;verticalAlign=middle;resizable=0;points=[];autosize=1;strokeColor=none;fillColor=none;html=1;fontSize=15;" parent="1" vertex="1">
          <mxGeometry x="992.8299999999999" y="-1143.89" width="80" height="30" as="geometry" />
        </mxCell>
        <mxCell id="jMqxLfQgD4BrnNBuKlTP-600" value="" style="edgeStyle=orthogonalEdgeStyle;rounded=0;orthogonalLoop=1;jettySize=auto;entryX=0.25;entryY=0;entryDx=0;entryDy=0;exitX=0.25;exitY=1;exitDx=0;exitDy=0;endArrow=blockThin;endFill=1;html=1;fontSize=15;" parent="1" edge="1">
          <mxGeometry relative="1" as="geometry">
            <mxPoint x="989.3799999999999" y="-1083" as="sourcePoint" />
            <mxPoint x="1020.3799999999999" y="-1083" as="targetPoint" />
          </mxGeometry>
        </mxCell>
        <mxCell id="jMqxLfQgD4BrnNBuKlTP-601" value="" style="ellipse;aspect=fixed;shadow=0;rotation=-90;html=1;fontSize=15;" parent="1" vertex="1">
          <mxGeometry x="1025.395" y="-1033.2450000000001" width="18.95734597156398" height="18.95734597156398" as="geometry" />
        </mxCell>
        <mxCell id="jMqxLfQgD4BrnNBuKlTP-602" value="" style="endArrow=blockThin;rounded=0;endFill=1;html=1;fontSize=15;" parent="1" edge="1">
          <mxGeometry width="50" height="50" relative="1" as="geometry">
            <mxPoint x="1034.7899999999997" y="-1039" as="sourcePoint" />
            <mxPoint x="1034.7899999999997" y="-1059" as="targetPoint" />
          </mxGeometry>
        </mxCell>
        <mxCell id="jMqxLfQgD4BrnNBuKlTP-603" value="$$w_8$$" style="text;align=center;verticalAlign=middle;resizable=0;points=[];autosize=1;strokeColor=none;fillColor=none;html=1;fontSize=15;" parent="1" vertex="1">
          <mxGeometry x="996.1099999999997" y="-1009" width="80" height="30" as="geometry" />
        </mxCell>
        <mxCell id="jMqxLfQgD4BrnNBuKlTP-604" value="" style="endArrow=blockThin;rounded=0;exitX=0.75;exitY=0;exitDx=0;exitDy=0;entryX=0.75;entryY=1;entryDx=0;entryDy=0;endFill=1;html=1;fontSize=15;" parent="1" edge="1">
          <mxGeometry width="50" height="50" relative="1" as="geometry">
            <mxPoint x="847.31" y="-1107.3100000000002" as="sourcePoint" />
            <mxPoint x="815.31" y="-1107.7" as="targetPoint" />
          </mxGeometry>
        </mxCell>
        <mxCell id="jMqxLfQgD4BrnNBuKlTP-605" value="" style="endArrow=blockThin;rounded=0;exitX=0.75;exitY=0;exitDx=0;exitDy=0;entryX=0.75;entryY=1;entryDx=0;entryDy=0;endFill=1;html=1;fontSize=15;" parent="1" edge="1">
          <mxGeometry width="50" height="50" relative="1" as="geometry">
            <mxPoint x="905.31" y="-1107.3100000000002" as="sourcePoint" />
            <mxPoint x="873.31" y="-1107.7" as="targetPoint" />
          </mxGeometry>
        </mxCell>
        <mxCell id="jMqxLfQgD4BrnNBuKlTP-606" value="" style="endArrow=blockThin;rounded=0;exitX=0.75;exitY=0;exitDx=0;exitDy=0;entryX=0.75;entryY=1;entryDx=0;entryDy=0;endFill=1;html=1;fontSize=15;" parent="1" edge="1">
          <mxGeometry width="50" height="50" relative="1" as="geometry">
            <mxPoint x="963.3099999999997" y="-1107.3100000000002" as="sourcePoint" />
            <mxPoint x="931.3099999999998" y="-1107.7" as="targetPoint" />
          </mxGeometry>
        </mxCell>
        <mxCell id="jMqxLfQgD4BrnNBuKlTP-607" value="" style="endArrow=blockThin;rounded=0;exitX=0.75;exitY=0;exitDx=0;exitDy=0;entryX=0.75;entryY=1;entryDx=0;entryDy=0;endFill=1;html=1;fontSize=15;" parent="1" edge="1">
          <mxGeometry width="50" height="50" relative="1" as="geometry">
            <mxPoint x="1021.3099999999997" y="-1107.3100000000002" as="sourcePoint" />
            <mxPoint x="989.3099999999997" y="-1107.7" as="targetPoint" />
          </mxGeometry>
        </mxCell>
        <mxCell id="jMqxLfQgD4BrnNBuKlTP-608" value="" style="rounded=0;rotation=-90;aspect=fixed;html=1;" parent="1" vertex="1">
          <mxGeometry x="1144.6066607550038" y="-942.3166505733252" width="37.62655181150241" height="20.381048897897138" as="geometry" />
        </mxCell>
        <mxCell id="jMqxLfQgD4BrnNBuKlTP-609" value="" style="ellipse;aspect=fixed;shadow=0;rotation=-90;html=1;" parent="1" vertex="1">
          <mxGeometry x="1156.3492804661767" y="-931.1454073627037" width="14.860407508492264" height="14.860407508492264" as="geometry" />
        </mxCell>
        <mxCell id="jMqxLfQgD4BrnNBuKlTP-610" value="" style="ellipse;aspect=fixed;shadow=0;rotation=-90;html=1;" parent="1" vertex="1">
          <mxGeometry x="1156.3492804661769" y="-948.7842124321063" width="14.860407508492264" height="14.860407508492264" as="geometry" />
        </mxCell>
        <mxCell id="jMqxLfQgD4BrnNBuKlTP-611" value="" style="rounded=1;dashed=1;fillColor=none;html=1;" parent="1" vertex="1">
          <mxGeometry x="1399.26" y="-959.1" width="213.95" height="53.63" as="geometry" />
        </mxCell>
        <mxCell id="jMqxLfQgD4BrnNBuKlTP-612" value="" style="edgeStyle=orthogonalEdgeStyle;rounded=0;orthogonalLoop=1;jettySize=auto;exitX=0.5;exitY=0;exitDx=0;exitDy=0;shadow=1;html=1;" parent="1" edge="1">
          <mxGeometry relative="1" as="geometry">
            <mxPoint x="1389.87" y="-969" as="sourcePoint" />
            <mxPoint x="1389.87" y="-969" as="targetPoint" />
          </mxGeometry>
        </mxCell>
        <mxCell id="jMqxLfQgD4BrnNBuKlTP-613" value="" style="rounded=0;rotation=-90;aspect=fixed;html=1;" parent="1" vertex="1">
          <mxGeometry x="1499.9666607550037" y="-942.3166505733252" width="37.62655181150241" height="20.381048897897138" as="geometry" />
        </mxCell>
        <mxCell id="jMqxLfQgD4BrnNBuKlTP-614" value="" style="ellipse;aspect=fixed;shadow=0;rotation=-90;fillColor=#f8cecc;strokeColor=#b85450;html=1;" parent="1" vertex="1">
          <mxGeometry x="1511.3492804661767" y="-931.1454073627037" width="14.860407508492264" height="14.860407508492264" as="geometry" />
        </mxCell>
        <mxCell id="jMqxLfQgD4BrnNBuKlTP-615" value="" style="ellipse;aspect=fixed;shadow=0;rotation=-90;fillColor=#f8cecc;strokeColor=#b85450;html=1;" parent="1" vertex="1">
          <mxGeometry x="1511.3492804661769" y="-948.7842124321063" width="14.860407508492264" height="14.860407508492264" as="geometry" />
        </mxCell>
        <mxCell id="jMqxLfQgD4BrnNBuKlTP-616" value="" style="rounded=0;rotation=-90;aspect=fixed;html=1;" parent="1" vertex="1">
          <mxGeometry x="1526.6066607550038" y="-942.3166505733252" width="37.62655181150241" height="20.381048897897138" as="geometry" />
        </mxCell>
        <mxCell id="jMqxLfQgD4BrnNBuKlTP-617" value="" style="ellipse;aspect=fixed;shadow=0;rotation=-90;html=1;" parent="1" vertex="1">
          <mxGeometry x="1538.3492804661767" y="-931.1454073627037" width="14.860407508492264" height="14.860407508492264" as="geometry" />
        </mxCell>
        <mxCell id="jMqxLfQgD4BrnNBuKlTP-618" value="" style="ellipse;aspect=fixed;shadow=0;rotation=-90;html=1;" parent="1" vertex="1">
          <mxGeometry x="1538.3492804661769" y="-948.7842124321063" width="14.860407508492264" height="14.860407508492264" as="geometry" />
        </mxCell>
        <mxCell id="jMqxLfQgD4BrnNBuKlTP-619" value="" style="rounded=0;rotation=-90;aspect=fixed;html=1;" parent="1" vertex="1">
          <mxGeometry x="1552.6066607550038" y="-942.3166505733252" width="37.62655181150241" height="20.381048897897138" as="geometry" />
        </mxCell>
        <mxCell id="jMqxLfQgD4BrnNBuKlTP-620" value="" style="ellipse;aspect=fixed;shadow=0;rotation=-90;html=1;" parent="1" vertex="1">
          <mxGeometry x="1564.3492804661767" y="-931.1454073627037" width="14.860407508492264" height="14.860407508492264" as="geometry" />
        </mxCell>
        <mxCell id="jMqxLfQgD4BrnNBuKlTP-621" value="" style="ellipse;aspect=fixed;shadow=0;rotation=-90;html=1;" parent="1" vertex="1">
          <mxGeometry x="1564.3492804661769" y="-948.7842124321063" width="14.860407508492264" height="14.860407508492264" as="geometry" />
        </mxCell>
        <mxCell id="jMqxLfQgD4BrnNBuKlTP-622" value="" style="rounded=0;rotation=-90;aspect=fixed;html=1;" parent="1" vertex="1">
          <mxGeometry x="1579.6066607550038" y="-942.3166505733252" width="37.62655181150241" height="20.381048897897138" as="geometry" />
        </mxCell>
        <mxCell id="jMqxLfQgD4BrnNBuKlTP-623" value="" style="ellipse;aspect=fixed;shadow=0;rotation=-90;html=1;" parent="1" vertex="1">
          <mxGeometry x="1591.3492804661767" y="-931.1454073627037" width="14.860407508492264" height="14.860407508492264" as="geometry" />
        </mxCell>
        <mxCell id="jMqxLfQgD4BrnNBuKlTP-624" value="" style="ellipse;aspect=fixed;shadow=0;rotation=-90;html=1;" parent="1" vertex="1">
          <mxGeometry x="1591.3492804661769" y="-948.7842124321063" width="14.860407508492264" height="14.860407508492264" as="geometry" />
        </mxCell>
        <mxCell id="jMqxLfQgD4BrnNBuKlTP-625" value="" style="rounded=0;rotation=-90;aspect=fixed;html=1;" parent="1" vertex="1">
          <mxGeometry x="1420.6066607550038" y="-942.3166505733252" width="37.62655181150241" height="20.381048897897138" as="geometry" />
        </mxCell>
        <mxCell id="jMqxLfQgD4BrnNBuKlTP-626" value="" style="ellipse;aspect=fixed;shadow=0;rotation=-90;html=1;" parent="1" vertex="1">
          <mxGeometry x="1432.3492804661767" y="-931.1454073627037" width="14.860407508492264" height="14.860407508492264" as="geometry" />
        </mxCell>
        <mxCell id="jMqxLfQgD4BrnNBuKlTP-627" value="" style="ellipse;aspect=fixed;shadow=0;rotation=-90;html=1;" parent="1" vertex="1">
          <mxGeometry x="1432.3492804661769" y="-948.7842124321063" width="14.860407508492264" height="14.860407508492264" as="geometry" />
        </mxCell>
        <mxCell id="jMqxLfQgD4BrnNBuKlTP-628" value="" style="rounded=0;rotation=-90;aspect=fixed;html=1;" parent="1" vertex="1">
          <mxGeometry x="1446.6066607550038" y="-942.3166505733252" width="37.62655181150241" height="20.381048897897138" as="geometry" />
        </mxCell>
        <mxCell id="jMqxLfQgD4BrnNBuKlTP-629" value="" style="ellipse;aspect=fixed;shadow=0;rotation=-90;html=1;" parent="1" vertex="1">
          <mxGeometry x="1458.3492804661767" y="-931.1454073627037" width="14.860407508492264" height="14.860407508492264" as="geometry" />
        </mxCell>
        <mxCell id="jMqxLfQgD4BrnNBuKlTP-630" value="" style="ellipse;aspect=fixed;shadow=0;rotation=-90;html=1;" parent="1" vertex="1">
          <mxGeometry x="1458.3492804661769" y="-948.7842124321063" width="14.860407508492264" height="14.860407508492264" as="geometry" />
        </mxCell>
        <mxCell id="jMqxLfQgD4BrnNBuKlTP-631" value="" style="rounded=0;rotation=-90;aspect=fixed;html=1;" parent="1" vertex="1">
          <mxGeometry x="1473.6066607550038" y="-942.3166505733252" width="37.62655181150241" height="20.381048897897138" as="geometry" />
        </mxCell>
        <mxCell id="jMqxLfQgD4BrnNBuKlTP-632" value="" style="ellipse;aspect=fixed;shadow=0;rotation=-90;fillColor=#f8cecc;strokeColor=#b85450;html=1;" parent="1" vertex="1">
          <mxGeometry x="1485.3492804661767" y="-931.1454073627037" width="14.860407508492264" height="14.860407508492264" as="geometry" />
        </mxCell>
        <mxCell id="jMqxLfQgD4BrnNBuKlTP-633" value="" style="ellipse;aspect=fixed;shadow=0;rotation=-90;fillColor=#f8cecc;strokeColor=#b85450;html=1;" parent="1" vertex="1">
          <mxGeometry x="1485.3492804661769" y="-948.7842124321063" width="14.860407508492264" height="14.860407508492264" as="geometry" />
        </mxCell>
        <mxCell id="jMqxLfQgD4BrnNBuKlTP-634" value="" style="rounded=0;rotation=-90;aspect=fixed;html=1;" parent="1" vertex="1">
          <mxGeometry x="1394.6066607550038" y="-942.3166505733252" width="37.62655181150241" height="20.381048897897138" as="geometry" />
        </mxCell>
        <mxCell id="jMqxLfQgD4BrnNBuKlTP-635" value="" style="ellipse;aspect=fixed;shadow=0;rotation=-90;html=1;" parent="1" vertex="1">
          <mxGeometry x="1406.3492804661767" y="-931.1454073627037" width="14.860407508492264" height="14.860407508492264" as="geometry" />
        </mxCell>
        <mxCell id="jMqxLfQgD4BrnNBuKlTP-636" value="" style="ellipse;aspect=fixed;shadow=0;rotation=-90;html=1;" parent="1" vertex="1">
          <mxGeometry x="1406.3492804661769" y="-948.7842124321063" width="14.860407508492264" height="14.860407508492264" as="geometry" />
        </mxCell>
        <mxCell id="05cj451iSyLvhAONUjFt-1" value="" style="rounded=1;dashed=1;html=1;fontSize=15;" vertex="1" parent="1">
          <mxGeometry x="-600" y="-300" width="224" height="224" as="geometry" />
        </mxCell>
        <mxCell id="05cj451iSyLvhAONUjFt-2" value="Text Input" style="rounded=1;whiteSpace=wrap;html=1;fontSize=15;" vertex="1" parent="1">
          <mxGeometry x="-170" y="-287" width="120" height="60" as="geometry" />
        </mxCell>
        <mxCell id="05cj451iSyLvhAONUjFt-3" value="Aspect Input" style="rounded=1;whiteSpace=wrap;html=1;fontSize=15;" vertex="1" parent="1">
          <mxGeometry x="60" y="-287" width="120" height="60" as="geometry" />
        </mxCell>
        <mxCell id="05cj451iSyLvhAONUjFt-4" value="RoBERTa" style="rounded=1;whiteSpace=wrap;html=1;fontSize=15;" vertex="1" parent="1">
          <mxGeometry x="-170" y="-400" width="350" height="60" as="geometry" />
        </mxCell>
        <mxCell id="05cj451iSyLvhAONUjFt-5" value="VIG" style="rounded=1;whiteSpace=wrap;html=1;fontSize=15;" vertex="1" parent="1">
          <mxGeometry x="-600" y="-400" width="224" height="60" as="geometry" />
        </mxCell>
        <mxCell id="05cj451iSyLvhAONUjFt-6" value="" style="rounded=1;html=1;fontSize=15;glass=0;shadow=0;arcSize=50;" vertex="1" parent="1">
          <mxGeometry x="30" y="-451.21999999999997" width="150" height="30" as="geometry" />
        </mxCell>
        <mxCell id="05cj451iSyLvhAONUjFt-7" value="" style="ellipse;aspect=fixed;shadow=0;rotation=-90;html=1;fontSize=15;fillColor=#e1d5e7;strokeColor=#9673a6;" vertex="1" parent="1">
          <mxGeometry x="65.52000000000001" y="-445.69500000000016" width="18.95734597156398" height="18.95734597156398" as="geometry" />
        </mxCell>
        <mxCell id="05cj451iSyLvhAONUjFt-9" value="" style="ellipse;aspect=fixed;shadow=0;rotation=-90;html=1;fontSize=15;fillColor=#e1d5e7;strokeColor=#9673a6;" vertex="1" parent="1">
          <mxGeometry x="35.52000000000001" y="-445.69500000000016" width="18.95734597156398" height="18.95734597156398" as="geometry" />
        </mxCell>
        <mxCell id="05cj451iSyLvhAONUjFt-17" value="" style="ellipse;aspect=fixed;shadow=0;rotation=-90;html=1;fontSize=15;fillColor=#e1d5e7;strokeColor=#9673a6;" vertex="1" parent="1">
          <mxGeometry x="95.52000000000001" y="-445.69500000000016" width="18.95734597156398" height="18.95734597156398" as="geometry" />
        </mxCell>
        <mxCell id="05cj451iSyLvhAONUjFt-23" value="" style="endArrow=none;dashed=1;html=1;dashPattern=1 3;strokeWidth=2;rounded=0;" edge="1" parent="1">
          <mxGeometry width="50" height="50" relative="1" as="geometry">
            <mxPoint x="126.02000000000001" y="-436.3" as="sourcePoint" />
            <mxPoint x="145.52" y="-436.3" as="targetPoint" />
          </mxGeometry>
        </mxCell>
        <mxCell id="05cj451iSyLvhAONUjFt-24" value="" style="ellipse;aspect=fixed;shadow=0;rotation=-90;html=1;fontSize=15;fillColor=#e1d5e7;strokeColor=#9673a6;" vertex="1" parent="1">
          <mxGeometry x="155.52" y="-445.69500000000016" width="18.95734597156398" height="18.95734597156398" as="geometry" />
        </mxCell>
        <mxCell id="05cj451iSyLvhAONUjFt-27" value="" style="rounded=1;html=1;fontSize=15;glass=0;shadow=0;arcSize=50;" vertex="1" parent="1">
          <mxGeometry x="-170" y="-451.21999999999997" width="150" height="30" as="geometry" />
        </mxCell>
        <mxCell id="05cj451iSyLvhAONUjFt-28" value="" style="ellipse;aspect=fixed;shadow=0;rotation=-90;html=1;fontSize=15;fillColor=#ffe6cc;strokeColor=#d79b00;" vertex="1" parent="1">
          <mxGeometry x="-134.48" y="-445.69500000000016" width="18.95734597156398" height="18.95734597156398" as="geometry" />
        </mxCell>
        <mxCell id="05cj451iSyLvhAONUjFt-29" value="" style="ellipse;aspect=fixed;shadow=0;rotation=-90;html=1;fontSize=15;fillColor=#ffe6cc;strokeColor=#d79b00;" vertex="1" parent="1">
          <mxGeometry x="-164.48" y="-445.69500000000016" width="18.95734597156398" height="18.95734597156398" as="geometry" />
        </mxCell>
        <mxCell id="05cj451iSyLvhAONUjFt-30" value="" style="ellipse;aspect=fixed;shadow=0;rotation=-90;html=1;fontSize=15;fillColor=#ffe6cc;strokeColor=#d79b00;" vertex="1" parent="1">
          <mxGeometry x="-104.47999999999999" y="-445.69500000000016" width="18.95734597156398" height="18.95734597156398" as="geometry" />
        </mxCell>
        <mxCell id="05cj451iSyLvhAONUjFt-31" value="" style="endArrow=none;dashed=1;html=1;dashPattern=1 3;strokeWidth=2;rounded=0;" edge="1" parent="1">
          <mxGeometry width="50" height="50" relative="1" as="geometry">
            <mxPoint x="-73.97999999999999" y="-436.3" as="sourcePoint" />
            <mxPoint x="-54.47999999999999" y="-436.3" as="targetPoint" />
          </mxGeometry>
        </mxCell>
        <mxCell id="05cj451iSyLvhAONUjFt-32" value="" style="ellipse;aspect=fixed;shadow=0;rotation=-90;html=1;fontSize=15;fillColor=#ffe6cc;strokeColor=#d79b00;" vertex="1" parent="1">
          <mxGeometry x="-44.47999999999999" y="-445.69500000000016" width="18.95734597156398" height="18.95734597156398" as="geometry" />
        </mxCell>
        <mxCell id="05cj451iSyLvhAONUjFt-33" value="" style="rounded=1;html=1;fontSize=15;glass=0;shadow=0;arcSize=50;" vertex="1" parent="1">
          <mxGeometry x="-563" y="-451.21999999999997" width="150" height="30" as="geometry" />
        </mxCell>
        <mxCell id="05cj451iSyLvhAONUjFt-34" value="" style="ellipse;aspect=fixed;shadow=0;rotation=-90;html=1;fontSize=15;fillColor=#dae8fc;strokeColor=#6c8ebf;" vertex="1" parent="1">
          <mxGeometry x="-527.48" y="-445.69500000000016" width="18.95734597156398" height="18.95734597156398" as="geometry" />
        </mxCell>
        <mxCell id="05cj451iSyLvhAONUjFt-35" value="" style="ellipse;aspect=fixed;shadow=0;rotation=-90;html=1;fontSize=15;fillColor=#dae8fc;strokeColor=#6c8ebf;" vertex="1" parent="1">
          <mxGeometry x="-557.48" y="-445.69500000000016" width="18.95734597156398" height="18.95734597156398" as="geometry" />
        </mxCell>
        <mxCell id="05cj451iSyLvhAONUjFt-36" value="" style="ellipse;aspect=fixed;shadow=0;rotation=-90;html=1;fontSize=15;fillColor=#dae8fc;strokeColor=#6c8ebf;" vertex="1" parent="1">
          <mxGeometry x="-497.48" y="-445.69500000000016" width="18.95734597156398" height="18.95734597156398" as="geometry" />
        </mxCell>
        <mxCell id="05cj451iSyLvhAONUjFt-37" value="" style="endArrow=none;dashed=1;html=1;dashPattern=1 3;strokeWidth=2;rounded=0;" edge="1" parent="1">
          <mxGeometry width="50" height="50" relative="1" as="geometry">
            <mxPoint x="-466.98" y="-436.3" as="sourcePoint" />
            <mxPoint x="-447.48" y="-436.3" as="targetPoint" />
          </mxGeometry>
        </mxCell>
        <mxCell id="05cj451iSyLvhAONUjFt-38" value="" style="ellipse;aspect=fixed;shadow=0;rotation=-90;html=1;fontSize=15;fillColor=#dae8fc;strokeColor=#6c8ebf;" vertex="1" parent="1">
          <mxGeometry x="-437.48" y="-445.69500000000016" width="18.95734597156398" height="18.95734597156398" as="geometry" />
        </mxCell>
      </root>
    </mxGraphModel>
  </diagram>
</mxfile>
